<svg width="24" height="24" fill="none" xmlns="http://www.w3.org/2000/svg"><g clip-path="url(#clip0)"><path d="M21.077 0H2.923A2.926 2.926 0 000 2.923v18.154A2.926 2.926 0 002.923 24h9.305a.709.709 0 00.709-.709V14.7a.709.709 0 00-.71-.709H9.682v-2.017h2.547a.709.709 0 00.709-.709V8.396a2.818 2.818 0 012.815-2.815h2.457v2.017h-2.457a.799.799 0 00-.798.798v2.868c0 .392.317.709.708.709h2.548v2.017h-2.548a.709.709 0 00-.708.709v8.592c0 .392.317.709.708.709h5.415A2.926 2.926 0 0024 21.077V2.923A2.926 2.926 0 0021.077 0zm1.506 21.077c0 .83-.676 1.506-1.506 1.506h-4.706v-7.176h2.547a.709.709 0 00.709-.708v-3.435a.709.709 0 00-.709-.708h-2.547v-1.54h2.547a.709.709 0 00.709-.71V4.872a.709.709 0 00-.709-.709h-3.166a4.237 4.237 0 00-4.233 4.233v2.16H8.972a.709.709 0 00-.709.708V14.7c0 .391.318.708.709.708h2.547v7.176H2.923c-.83 0-1.506-.676-1.506-1.506V2.923c0-.83.676-1.506 1.506-1.506h18.154c.83 0 1.506.676 1.506 1.506v18.154z" fill="#2C2C2C"/></g><defs><clipPath id="clip0"><path fill="#fff" d="M0 0h24v24H0z"/></clipPath></defs></svg>