<svg width="50" height="50" fill="none" xmlns="http://www.w3.org/2000/svg"><g clip-path="url(#clip0)"><path d="M43.91 0H6.09A6.096 6.096 0 000 6.09v37.82A6.096 6.096 0 006.09 50h19.385c.815 0 1.476-.661 1.476-1.476V30.622c0-.815-.661-1.476-1.476-1.476h-5.307v-4.203h5.307c.815 0 1.476-.66 1.476-1.476v-5.976a5.872 5.872 0 015.865-5.865h5.12v4.203h-5.12c-.917 0-1.663.746-1.663 1.662v5.976c0 .816.662 1.477 1.477 1.477h5.307v4.202H32.63c-.815 0-1.477.661-1.477 1.476v17.902c0 .815.662 1.476 1.477 1.476h11.28A6.097 6.097 0 0050 43.91V6.09A6.096 6.096 0 0043.91 0zm3.137 43.91a3.14 3.14 0 01-3.137 3.137h-9.804V32.1h5.307c.815 0 1.476-.661 1.476-1.477v-7.155c0-.815-.66-1.476-1.476-1.476h-5.307v-3.21h5.307c.815 0 1.476-.66 1.476-1.476V10.15c0-.815-.66-1.476-1.476-1.476h-6.597c-4.862 0-8.818 3.955-8.818 8.817v4.5h-5.306c-.816 0-1.477.66-1.477 1.476v7.155c0 .816.661 1.477 1.477 1.477h5.306v14.948H6.09a3.14 3.14 0 01-3.137-3.137V6.09A3.14 3.14 0 016.09 2.953h37.82a3.14 3.14 0 013.137 3.137v37.82z" fill="#fff"/></g><defs><clipPath id="clip0"><path fill="#fff" d="M0 0h50v50H0z"/></clipPath></defs></svg>