<svg width="24" height="24" fill="none" xmlns="http://www.w3.org/2000/svg"><g clip-path="url(#clip0)" fill="#319D50"><path d="M22.04 2.945A6.573 6.573 0 0017.235.85a6.573 6.573 0 00-4.81 2.096l-.423.448-.422-.448a6.568 6.568 0 00-9.278-.341 6.87 6.87 0 00-.342.341 7.356 7.356 0 000 10.008l9.42 9.931a.862.862 0 001.21.035l.036-.035 9.414-9.931a7.356 7.356 0 000-10.008z"/><path d="M20.799 11.771l-8.796 9.274-8.796-9.274a5.62 5.62 0 010-7.645 4.847 4.847 0 017.128 0l1.045 1.101c.347.342.9.342 1.246 0l1.046-1.1a4.847 4.847 0 017.127 0c2.015 2.16 2.03 5.498 0 7.644z"/></g><defs><clipPath id="clip0"><path fill="#fff" d="M0 0h24v24H0z"/></clipPath></defs></svg>