<svg width="24" height="24" fill="none" xmlns="http://www.w3.org/2000/svg"><path d="M22.037 2.946A6.574 6.574 0 0017.234.849a6.582 6.582 0 00-4.809 2.096l-.423.448-.424-.448a6.563 6.563 0 00-9.615 0 7.36 7.36 0 000 10.008l9.416 9.93a.858.858 0 001.245 0l9.413-9.93a7.36 7.36 0 000-10.007zm-1.24 8.826h-.002l-8.793 9.275-8.795-9.275a5.625 5.625 0 010-7.647 4.848 4.848 0 017.127 0l1.045 1.103c.345.342.9.342 1.245 0l1.046-1.102a4.848 4.848 0 017.126 0c2.017 2.16 2.032 5.5 0 7.646z" fill="#2C2C2C"/></svg>