<svg width="40" height="40" fill="none" xmlns="http://www.w3.org/2000/svg"><path d="M36.729 4.91a10.958 10.958 0 00-8.006-3.495 10.97 10.97 0 00-8.014 3.493l-.706.746-.706-.746C15.185.483 8.264.228 3.839 4.34a11.27 11.27 0 00-.568.568 12.267 12.267 0 000 16.68l15.694 16.55a1.43 1.43 0 002.076 0l15.688-16.55a12.266 12.266 0 000-16.679zM34.66 19.62h-.001L20.003 35.077 5.346 19.62a9.374 9.374 0 010-12.745 8.08 8.08 0 0111.877 0l1.742 1.838a1.472 1.472 0 002.076 0l1.742-1.837a8.08 8.08 0 0111.877 0c3.361 3.601 3.386 9.166 0 12.744z" fill="#fff"/></svg>