<svg width="24" height="24" fill="none" xmlns="http://www.w3.org/2000/svg"><path d="M17.42 0H6.58A6.587 6.587 0 000 6.58v10.84A6.587 6.587 0 006.58 24h10.84A6.587 6.587 0 0024 17.42V6.58A6.587 6.587 0 0017.42 0zm5.163 17.42a5.168 5.168 0 01-5.162 5.163H6.579a5.168 5.168 0 01-5.162-5.162V6.579A5.168 5.168 0 016.58 1.417h10.842a5.168 5.168 0 015.162 5.162v10.842z" fill="#2C2C2C"/><path d="M12 5.417A6.59 6.59 0 005.419 12a6.59 6.59 0 006.583 6.583A6.59 6.59 0 0018.583 12a6.59 6.59 0 00-6.582-6.583zm0 11.748A5.171 5.171 0 016.836 12a5.171 5.171 0 015.166-5.166A5.171 5.171 0 0117.166 12a5.171 5.171 0 01-5.165 5.165zm6.977-14.141c-1.103 0-2 .897-2 2 0 1.102.897 2 2 2 1.102 0 2-.898 2-2 0-1.103-.898-2-2-2zm0 2.582a.583.583 0 110-1.166.583.583 0 010 1.166z" fill="#2C2C2C"/></svg>