<svg width="50" height="50" fill="none" xmlns="http://www.w3.org/2000/svg"><path d="M36.293 0H13.707C6.149 0 0 6.149 0 13.707v22.586C0 43.851 6.149 50 13.707 50h22.586C43.851 50 50 43.851 50 36.293V13.707C50 6.149 43.851 0 36.293 0zm10.754 36.293c0 5.93-4.824 10.754-10.754 10.754H13.707c-5.93 0-10.754-4.824-10.754-10.754V13.707c0-5.93 4.824-10.754 10.754-10.754h22.586c5.93 0 10.754 4.824 10.754 10.754v22.586z" fill="#fff"/><path d="M25 11.286c-7.563 0-13.715 6.152-13.715 13.714S17.437 38.714 25 38.714 38.713 32.562 38.713 25 32.561 11.286 25 11.286zm0 24.475c-5.935 0-10.762-4.828-10.762-10.761 0-5.934 4.827-10.762 10.761-10.762 5.934 0 10.762 4.828 10.762 10.762s-4.828 10.76-10.763 10.76zM39.534 6.3a4.171 4.171 0 00-4.167 4.166 4.171 4.171 0 004.167 4.167 4.171 4.171 0 004.166-4.167 4.171 4.171 0 00-4.166-4.167zm0 5.38a1.215 1.215 0 010-2.428 1.215 1.215 0 010 2.428z" fill="#fff"/></svg>