<svg width="100" height="100" fill="none" xmlns="http://www.w3.org/2000/svg"><g clip-path="url(#clip0)"><g clip-path="url(#clip1)"><path d="M84.375 28.125h-68.75a3.125 3.125 0 010-6.25h68.75a3.125 3.125 0 010 6.25zM87.5 50c0-1.726-1.4-3.125-3.125-3.125h-68.75a3.125 3.125 0 000 6.25h68.75c1.726 0 3.125-1.4 3.125-3.125zm0 25c0-1.726-1.4-3.125-3.125-3.125h-68.75a3.125 3.125 0 000 6.25h68.75c1.726 0 3.125-1.4 3.125-3.125z" fill="#fff"/></g></g><defs><clipPath id="clip0"><path fill="#fff" d="M0 0h100v100H0z"/></clipPath><clipPath id="clip1"><path fill="#fff" transform="translate(8 12)" d="M0 0h1750v88H0z"/></clipPath></defs></svg>