<svg width="50" height="50" fill="none" xmlns="http://www.w3.org/2000/svg"><g clip-path="url(#clip0)" fill="#319D50"><path d="M46.569.097H3.43A3.435 3.435 0 000 3.528v31.373a3.435 3.435 0 003.431 3.431h5.392v10.294c0 1.313 1.592 1.959 2.51 1.04l11.335-11.334h23.9A3.435 3.435 0 0050 34.901V3.528A3.435 3.435 0 0046.569.097zm.49 34.804c0 .27-.22.49-.49.49h-24.51c-.39 0-.764.155-1.04.43l-9.254 9.255v-8.214a1.47 1.47 0 00-1.471-1.471H3.431a.49.49 0 01-.49-.49V3.528c0-.27.22-.49.49-.49H46.57c.27 0 .49.22.49.49v31.373z"/><path d="M37.573 14.979l-7.775-1.13-3.478-7.046c-.538-1.09-2.099-1.091-2.637 0l-3.478 7.046-7.776 1.13c-1.203.175-1.686 1.658-.815 2.508l5.627 5.485-1.328 7.744c-.206 1.199 1.056 2.117 2.134 1.55L25 28.61c7.508 3.947 7.133 3.825 7.64 3.825.906 0 1.604-.817 1.449-1.72l-1.328-7.743 5.626-5.485c.871-.849.39-2.333-.815-2.508zm-7.418 6.426a1.47 1.47 0 00-.423 1.302l.956 5.57-5.002-2.63a1.47 1.47 0 00-1.369 0l-5.002 2.63.955-5.57a1.47 1.47 0 00-.422-1.302L15.8 17.461l5.592-.813c.48-.07.893-.37 1.107-.804l2.502-5.067 2.5 5.067c.215.434.629.735 1.107.804l5.593.813-4.047 3.944z"/></g><defs><clipPath id="clip0"><path fill="#fff" d="M0 0h50v50H0z"/></clipPath></defs></svg>