<svg width="80" height="58" fill="none" xmlns="http://www.w3.org/2000/svg"><path d="M17.74.765C7.958.765 0 8.722 0 18.505c0 9.437 7.406 17.178 16.711 17.712.162 1.74.04 6.475-4.497 13.062a1.25 1.25 0 00.146 1.593 548.076 548.076 0 013.807 3.844c1.051 1.07 1.53 1.558 2.233 2.195a1.246 1.246 0 001.66.018c7.906-6.88 16.69-21.095 15.418-38.514C34.734 8.188 27.274.765 17.74.765zm1.512 53.513c-.34-.336-.73-.731-1.302-1.314a508.63 508.63 0 00-3.098-3.133c5.507-8.485 4.467-14.53 4.011-15.396a1.295 1.295 0 00-1.123-.688c-8.403 0-15.24-6.837-15.24-15.242 0-8.403 6.837-15.24 15.24-15.24 8.187 0 14.598 6.447 15.246 15.33C34.414 38.188 22.77 50.91 19.252 54.278zm60.624-35.863v-.002C79.127 8.188 71.666.765 62.136.765c-9.783 0-17.742 7.957-17.742 17.74 0 9.437 7.408 17.178 16.714 17.712.162 1.739.04 6.471-4.5 13.062a1.25 1.25 0 00.146 1.593c1.85 1.85 2.995 3.016 3.798 3.833 1.056 1.077 1.538 1.567 2.243 2.207a1.253 1.253 0 001.66.016c7.907-6.88 16.69-21.095 15.42-38.513zM63.647 54.278c-.343-.338-.734-.736-1.312-1.325-.696-.708-1.647-1.677-3.088-3.122 5.506-8.487 4.468-14.53 4.014-15.396a1.299 1.299 0 00-1.125-.688c-8.404 0-15.242-6.837-15.242-15.242 0-8.403 6.838-15.24 15.242-15.24 8.185 0 14.597 6.447 15.247 15.332v-.002c1.427 19.59-10.218 32.314-13.736 35.683z" fill="#2C2C2C"/></svg>