<svg width="24" height="24" fill="none" xmlns="http://www.w3.org/2000/svg"><path d="M21.92 22.997L20.46 6.734a.861.861 0 00-.858-.785h-3.011V4.591A4.596 4.596 0 0012 0a4.596 4.596 0 00-4.59 4.591v1.358H4.396a.861.861 0 00-.858.785L2.072 23.062A.861.861 0 002.93 24h18.14a.861.861 0 00.85-1.003zM9.134 4.591A2.871 2.871 0 0112 1.723a2.871 2.871 0 012.868 2.868v1.358H9.133V4.591zm-5.26 17.686l1.31-14.605H7.41v1.54a.861.861 0 101.723 0v-1.54h5.735v1.54a.861.861 0 101.723 0v-1.54h2.224l1.311 14.605H3.872z" fill="#fff"/></svg>