<svg width="40" height="40" fill="none" xmlns="http://www.w3.org/2000/svg"><path d="M36.535 38.33L34.1 11.222a1.436 1.436 0 00-1.43-1.308h-5.02V7.652C27.65 3.432 24.218 0 20 0c-4.22 0-7.652 3.433-7.652 7.652v2.263h-5.02c-.744 0-1.364.567-1.43 1.308L3.453 38.436A1.436 1.436 0 004.883 40h30.235a1.436 1.436 0 001.417-1.67zM15.22 7.651A4.785 4.785 0 0120 2.872a4.785 4.785 0 014.78 4.78v2.263h-9.56V7.652zM6.453 37.129L8.64 12.787h3.71v2.567a1.436 1.436 0 102.872 0v-2.567h9.56v2.567a1.436 1.436 0 102.87 0v-2.567h3.707l2.186 24.342H6.454z" fill="#fff"/></svg>