<svg width="50" height="50" fill="none" xmlns="http://www.w3.org/2000/svg"><path d="M25 0C11.182 0 0 11.181 0 25a24.81 24.81 0 004.213 13.89L.76 47.199c-.532 1.281.756 2.574 2.04 2.04l8.308-3.45A24.813 24.813 0 0025 50c13.817 0 25-11.181 25-25C50 11.183 38.819 0 25 0zm0 46.878a21.72 21.72 0 01-12.788-4.125 1.561 1.561 0 00-1.512-.176l-5.606 2.33L7.423 39.3a1.56 1.56 0 00-.176-1.512A21.719 21.719 0 013.122 25C3.122 12.936 12.936 3.122 25 3.122S46.878 12.936 46.878 25 37.064 46.878 25 46.878z" fill="#319D50"/><path d="M31.673 15.089l-9.602 9.601-2.978-2.978a4.68 4.68 0 00-6.622 0 4.688 4.688 0 000 6.622l6.289 6.29a4.68 4.68 0 006.622 0L38.295 21.71a4.688 4.688 0 000-6.622 4.68 4.68 0 00-6.622 0zm4.415 4.414L23.175 32.416a1.56 1.56 0 01-2.207 0l-6.29-6.289a1.56 1.56 0 112.208-2.207l4.082 4.082a1.561 1.561 0 002.207 0L33.88 17.296a1.56 1.56 0 112.208 2.207z" fill="#319D50"/></svg>