<svg width="40" height="40" fill="none" xmlns="http://www.w3.org/2000/svg"><path d="M20 22.53c-12.018 0-18.637 5.686-18.637 16.01 0 .806.654 1.46 1.46 1.46h34.355a1.46 1.46 0 001.46-1.46c0-10.323-6.619-16.01-18.637-16.01zM4.337 37.08c.574-7.719 5.837-11.63 15.665-11.63 9.827 0 15.09 3.911 15.665 11.63H4.336zM20 0c-5.52 0-9.684 4.247-9.684 9.878 0 5.796 4.345 10.51 9.684 10.51 5.34 0 9.684-4.714 9.684-10.51C29.684 4.247 25.52 0 20 0zm0 17.47c-3.73 0-6.764-3.406-6.764-7.592 0-4.032 2.845-6.958 6.764-6.958 3.857 0 6.764 2.99 6.764 6.958 0 4.186-3.034 7.592-6.764 7.592z" fill="#fff"/></svg>