<svg width="50" height="50" fill="none" xmlns="http://www.w3.org/2000/svg"><g clip-path="url(#clip0)"><path d="M49.75 39.76l-1.721-4.045c-1.5-3.586-3.482-6.687-5.903-9.242 3.18-2.546 6.373-6.981 6.373-14.525V9.02A3.122 3.122 0 0045.38 5.9h-5.856a3.122 3.122 0 00-3.119 3.119v2.928c0 2.177-.404 3.591-1.31 4.586-.632.696-1.571 1.248-2.8 1.648V7.377c0-.815-.662-1.476-1.477-1.476H19.852a3.986 3.986 0 00-3.981 3.982 3.968 3.968 0 003.06 3.873l.48.114c.465.11.79.522.79 1v15.17c-1.313-.9-2.539-2.091-3.616-3.525-2.896-3.855-4.491-9.029-4.491-14.567V9.02A3.122 3.122 0 008.975 5.9H3.119A3.122 3.122 0 000 9.02v2.928c0 8.305 2.55 16.175 7.181 22.16C12.168 40.55 18.94 44.1 26.248 44.1h2.928a3.122 3.122 0 003.118-3.12v-7.183c1.893 1.63 3.429 3.839 4.58 6.59l.752 1.797a3.11 3.11 0 002.877 1.915h6.377a3.11 3.11 0 002.602-1.398 3.11 3.11 0 00.268-2.941zm-2.732 1.312c-.049.075-.114.075-.138.075h-6.377a.165.165 0 01-.153-.102l-.752-1.798c-1.638-3.914-3.99-6.914-6.994-8.916-.34-.227-.69-.44-1.07-.65a1.475 1.475 0 00-2.192 1.29v10.01a.166.166 0 01-.166.166h-2.928c-6.375 0-12.317-3.142-16.731-8.847-4.233-5.47-6.564-12.697-6.564-20.352V9.02c0-.092.074-.166.166-.166h5.856c.091 0 .166.074.166.166v2.928c0 6.174 1.805 11.977 5.083 16.34 1.934 2.575 4.311 4.512 6.875 5.603a1.477 1.477 0 002.054-1.358V14.87a3.968 3.968 0 00-3.06-3.874l-.479-.114a1.03 1.03 0 01.238-2.03h9.49v11.211a1.477 1.477 0 001.74 1.453c2.762-.503 4.847-1.511 6.198-2.995 1.437-1.58 2.078-3.607 2.078-6.574V9.02c0-.092.074-.166.166-.166h5.856c.092 0 .166.074.166.166v2.928c0 7.394-3.534 11.206-6.498 13.103a1.476 1.476 0 00-.205 2.33c2.696 2.482 4.87 5.67 6.463 9.477l.004.009 1.723 4.049a.15.15 0 01-.015.156z" fill="#fff"/></g><defs><clipPath id="clip0"><path fill="#fff" d="M0 0h50v50H0z"/></clipPath></defs></svg>