<svg width="24" height="24" fill="none" xmlns="http://www.w3.org/2000/svg"><g clip-path="url(#clip0)"><path d="M23.88 19.085l-.826-1.942c-.72-1.72-1.672-3.21-2.834-4.436 1.527-1.222 3.06-3.35 3.06-6.972V4.329c0-.825-.672-1.496-1.498-1.496h-2.81c-.826 0-1.498.671-1.498 1.496v1.406c0 1.045-.193 1.724-.628 2.201-.304.335-.755.6-1.345.791V3.541a.709.709 0 00-.708-.708H9.529a1.913 1.913 0 00-1.911 1.91c0 .89.604 1.654 1.469 1.86l.23.055c.223.053.38.25.38.48v7.28a7.498 7.498 0 01-1.736-1.69c-1.39-1.851-2.156-4.335-2.156-6.993V4.329c0-.825-.672-1.496-1.497-1.496H1.497C.67 2.833 0 3.504 0 4.329v1.406c0 3.987 1.224 7.764 3.447 10.637 2.394 3.092 5.644 4.796 9.152 4.796h1.405c.826 0 1.497-.672 1.497-1.497v-3.448c.909.782 1.646 1.842 2.198 3.162l.361.863c.234.559.776.92 1.381.92h3.061a1.496 1.496 0 001.378-2.083zm-1.311.63c-.024.035-.055.035-.067.035h-3.06a.08.08 0 01-.074-.048l-.361-.864c-.786-1.878-1.916-3.318-3.357-4.28a7.313 7.313 0 00-.513-.311.708.708 0 00-1.053.62v4.804a.08.08 0 01-.08.08H12.6c-3.06 0-5.912-1.509-8.031-4.247-2.032-2.625-3.15-6.095-3.15-9.769V4.329a.08.08 0 01.079-.08h2.811a.08.08 0 01.08.08v1.406c0 2.964.866 5.75 2.44 7.844.928 1.235 2.069 2.165 3.3 2.689a.709.709 0 00.986-.652V7.138c0-.889-.604-1.654-1.469-1.86l-.23-.054a.494.494 0 01.114-.974h4.555v5.38a.709.709 0 00.836.698c1.325-.241 2.326-.725 2.974-1.438.69-.758.998-1.73.998-3.155V4.329a.08.08 0 01.08-.08h2.81a.08.08 0 01.08.08v1.406c0 3.55-1.696 5.38-3.12 6.29a.708.708 0 00-.097 1.118c1.294 1.191 2.338 2.722 3.102 4.549l.002.004.827 1.944c.004.01.016.039-.007.075z" fill="#2C2C2C"/></g><defs><clipPath id="clip0"><path fill="#fff" d="M0 0h24v24H0z"/></clipPath></defs></svg>