<svg width="20" height="20" fill="none" xmlns="http://www.w3.org/2000/svg"><g clip-path="url(#clip0)" fill="#fff"><path d="M15.005 12.04l-1.06-1.06a1.372 1.372 0 00-1.096-.397c-.407.037-.774.25-1.007.586l-.37.532c-.502-.09-1.473-.342-2.152-1.021-.68-.68-.932-1.652-1.022-2.153l.533-.37a1.372 1.372 0 00.189-2.103l-1.06-1.06a1.365 1.365 0 00-1.598-.253c-.93.482-1.54 1.384-1.718 2.54-.292 1.884.579 4.108 2.273 5.802 1.478 1.477 3.357 2.329 5.064 2.329.25 0 .497-.019.738-.056 1.156-.179 2.058-.79 2.54-1.718a1.365 1.365 0 00-.254-1.598zm-.825 1.04c-.383.737-1.107.992-1.647 1.076-1.486.23-3.353-.528-4.757-1.932-1.404-1.404-2.162-3.271-1.932-4.757.083-.54.338-1.265 1.076-1.647a.14.14 0 01.065-.015c.041 0 .083.017.115.048l1.06 1.06a.16.16 0 01.047.129.157.157 0 01-.069.118l-.837.58a.607.607 0 00-.26.54c.005.08.143 1.982 1.42 3.258 1.277 1.277 3.179 1.415 3.26 1.42a.608.608 0 00.538-.26l.58-.837a.157.157 0 01.119-.068.157.157 0 01.128.046l1.06 1.06c.05.05.063.124.034.18z"/><path d="M17.07 2.93A9.935 9.935 0 0010 0a9.935 9.935 0 00-7.072 2.929 10.026 10.026 0 00-2.87 5.983 10.05 10.05 0 001.305 6.134l-1.042 3.89a.607.607 0 00.744.743l3.889-1.042a10.047 10.047 0 006.134 1.305 10.026 10.026 0 005.983-2.87A9.935 9.935 0 0020 10a9.935 9.935 0 00-2.93-7.07zm-.858 13.283a8.745 8.745 0 01-10.845 1.255.608.608 0 00-.478-.071l-3.123.837.837-3.123a.608.608 0 00-.07-.478A8.745 8.745 0 013.786 3.788c3.426-3.426 9-3.426 12.425 0 3.426 3.425 3.426 9 0 12.425z"/></g><defs><clipPath id="clip0"><path fill="#fff" d="M0 0h20v20H0z"/></clipPath></defs></svg>