<svg width="24" height="24" fill="none" xmlns="http://www.w3.org/2000/svg"><path d="M20.982 3.018A10.237 10.237 0 0013.696 0a10.24 10.24 0 00-7.287 3.018 10.237 10.237 0 00-3.018 7.286c0 2.517.897 4.895 2.538 6.772L.206 22.798a.704.704 0 00.996.996l5.722-5.723a10.228 10.228 0 006.772 2.538c2.752 0 5.34-1.072 7.286-3.019A10.237 10.237 0 0024 10.304c0-2.752-1.072-5.34-3.018-7.286zm-.995 13.577c-3.47 3.469-9.113 3.469-12.582 0-3.469-3.469-3.469-9.113 0-12.581a8.868 8.868 0 016.29-2.602 8.87 8.87 0 016.291 2.602c3.47 3.468 3.47 9.112 0 12.581z" fill="#000"/><path d="M18 11.143h-3.857V15h-1.286v-3.857H9V9.857h3.857V6h1.286v3.857H18v1.286z" fill="#2C2C2C"/></svg>