<svg width="24" height="24" viewBox="0 0 24 24" fill="none" xmlns="http://www.w3.org/2000/svg">
<path d="M12.0009 13.5182C4.78975 13.5182 0.818359 16.9296 0.818359 23.1241C0.818359 23.6078 1.21047 24 1.69427 24H22.3074C22.7912 24 23.1833 23.6078 23.1833 23.1241C23.1834 16.9299 19.212 13.5182 12.0009 13.5182ZM2.60205 22.2481C2.94658 17.6166 6.10422 15.27 12.0009 15.27C17.8975 15.27 21.0552 17.6166 21.4 22.2481H2.60205V22.2481Z" fill="white"/>
<path d="M11.9997 0C8.68723 0 6.18945 2.54803 6.18945 5.92673C6.18945 9.40439 8.79589 12.2333 11.9997 12.2333C15.2034 12.2333 17.8099 9.40439 17.8099 5.92702C17.8099 2.54803 15.3121 0 11.9997 0ZM11.9997 10.4818C9.7617 10.4818 7.94127 8.43853 7.94127 5.92702C7.94127 3.50775 9.64813 1.75181 11.9997 1.75181C14.3135 1.75181 16.058 3.54656 16.058 5.92702C16.058 8.43853 14.2376 10.4818 11.9997 10.4818Z" fill="white"/>
</svg>
