<svg width="50" height="50" viewBox="0 0 50 50" fill="none" xmlns="http://www.w3.org/2000/svg">
<g clip-path="url(#clip0)">
<path d="M43.9104 0H6.08955C2.73174 0 0 2.73174 0 6.08955V43.9104C0 47.2683 2.73174 50 6.08955 50H25.4746C26.2899 50 26.951 49.339 26.951 48.5236V30.6223C26.951 29.8069 26.2899 29.1459 25.4746 29.1459H20.1679V24.9435H25.4746C26.2899 24.9435 26.951 24.2824 26.951 23.4671V17.4913C26.951 14.2573 29.582 11.6263 32.8161 11.6263H37.9365V15.8287H32.8161C31.8994 15.8287 31.1535 16.5747 31.1535 17.4914V23.4672C31.1535 24.2825 31.8146 24.9436 32.6299 24.9436H37.9366V29.146H32.6299C31.8146 29.146 31.1535 29.807 31.1535 30.6224V48.5237C31.1535 49.3391 31.8146 50.0001 32.6299 50.0001H43.9104C47.2683 50 50 47.2683 50 43.9104V6.08955C50 2.73174 47.2683 0 43.9104 0ZM47.0473 43.9104C47.0473 45.6401 45.6401 47.0474 43.9104 47.0474H34.1062H34.1061V32.0986H39.4128C40.2281 32.0986 40.8892 31.4376 40.8892 30.6223V23.4672C40.8892 22.6519 40.2281 21.9908 39.4128 21.9908H34.1061V18.7814H39.4128C40.2281 18.7814 40.8892 18.1204 40.8892 17.3051V10.15C40.8892 9.33467 40.2281 8.67363 39.4128 8.67363H32.816C27.9539 8.67363 23.9982 12.6293 23.9982 17.4914V21.9908H18.6915C17.8762 21.9908 17.2151 22.6519 17.2151 23.4672V30.6223C17.2151 31.4376 17.8762 32.0986 18.6915 32.0986H23.9982V47.0473H6.08955C4.35986 47.0473 2.95264 45.6401 2.95264 43.9104V6.08955C2.95264 4.35986 4.35977 2.95264 6.08955 2.95264H43.9104C45.64 2.95264 47.0473 4.35977 47.0473 6.08955V43.9104Z" fill="white"/>
</g>
<defs>
<clipPath id="clip0">
<rect width="50" height="50" fill="white"/>
</clipPath>
</defs>
</svg>
