<svg width="24" height="24" viewBox="0 0 24 24" fill="none" xmlns="http://www.w3.org/2000/svg">
<g clip-path="url(#clip0)">
<path d="M21.077 0H2.92298C1.31123 0 0 1.31123 0 2.92298V21.077C0 22.6888 1.31123 24 2.92298 24H12.2278C12.6192 24 12.9365 23.6827 12.9365 23.2913V14.6987C12.9365 14.3073 12.6192 13.99 12.2278 13.99H9.68058V11.9729H12.2278C12.6192 11.9729 12.9365 11.6556 12.9365 11.2642V8.39583C12.9365 6.84352 14.1994 5.58061 15.7517 5.58061H18.2095V7.59778H15.7517C15.3117 7.59778 14.9537 7.95586 14.9537 8.39587V11.2642C14.9537 11.6556 15.271 11.9729 15.6623 11.9729H18.2096V13.9901H15.6623C15.271 13.9901 14.9537 14.3074 14.9537 14.6987V23.2914C14.9537 23.6828 15.271 24 15.6623 24H21.077C22.6888 24 24 22.6888 24 21.077V2.92298C24 1.31123 22.6888 0 21.077 0ZM22.5827 21.077C22.5827 21.9073 21.9073 22.5827 21.077 22.5827H16.371H16.3709V15.4073H18.9181C19.3095 15.4073 19.6268 15.09 19.6268 14.6987V11.2642C19.6268 10.8729 19.3095 10.5556 18.9181 10.5556H16.3709V9.01509H18.9181C19.3095 9.01509 19.6268 8.6978 19.6268 8.30644V4.872C19.6268 4.48064 19.3095 4.16334 18.9181 4.16334H15.7517C13.4179 4.16334 11.5192 6.06206 11.5192 8.39587V10.5556H8.97192C8.58056 10.5556 8.26327 10.8729 8.26327 11.2642V14.6987C8.26327 15.09 8.58056 15.4073 8.97192 15.4073H11.5192V22.5827H2.92298C2.09273 22.5827 1.41727 21.9073 1.41727 21.077V2.92298C1.41727 2.09273 2.09269 1.41727 2.92298 1.41727H21.077C21.9072 1.41727 22.5827 2.09269 22.5827 2.92298V21.077Z" fill="#2C2C2C"/>
</g>
<defs>
<clipPath id="clip0">
<rect width="24" height="24" fill="white"/>
</clipPath>
</defs>
</svg>
