<svg width="40" height="40" viewBox="0 0 40 40" fill="none" xmlns="http://www.w3.org/2000/svg">
<path d="M36.7289 4.90935C34.6599 2.68551 31.7608 1.42018 28.7233 1.41549C25.6835 1.419 22.7813 2.68367 20.7091 4.90793L20.0029 5.65418L19.2967 4.90793C15.185 0.482609 8.26429 0.22847 3.83906 4.34018C3.64297 4.52245 3.45358 4.71175 3.27131 4.90793C-1.09044 9.6126 -1.09044 16.8835 3.27131 21.5881L18.9651 38.1382C19.5081 38.7114 20.4129 38.736 20.9861 38.193C21.0048 38.1753 21.0231 38.157 21.0408 38.1382L36.7289 21.5881C41.0904 16.884 41.0904 9.61352 36.7289 4.90935ZM34.6603 19.6196H34.6589L20.0029 35.0775L5.34563 19.6196C2.01351 16.0248 2.01351 10.4698 5.34563 6.87504C8.37159 3.59535 13.4834 3.38971 16.7631 6.41567C16.9224 6.5626 17.0756 6.7158 17.2225 6.87504L18.9651 8.71348C19.5394 9.28408 20.4666 9.28408 21.0408 8.71348L22.7835 6.87646C25.8094 3.59678 30.9213 3.39114 34.201 6.4171C34.3602 6.56402 34.5134 6.71722 34.6603 6.87646C38.0214 10.477 38.046 16.042 34.6603 19.6196Z" fill="white"/>
</svg>
