<svg width="24" height="24" viewBox="0 0 24 24" fill="none" xmlns="http://www.w3.org/2000/svg">
<path d="M22.0373 2.94564C20.7959 1.61134 19.0565 0.852136 17.234 0.849322C15.4101 0.851433 13.6688 1.61023 12.4255 2.94479L12.0018 3.39254L11.578 2.94479C9.11101 0.289596 4.95858 0.137113 2.30343 2.60414C2.18578 2.7135 2.07215 2.82708 1.96278 2.94479C-0.654261 5.76759 -0.654261 10.1301 1.96278 12.9529L11.3791 22.883C11.7048 23.2269 12.2477 23.2416 12.5916 22.9158C12.6029 22.9052 12.6139 22.8942 12.6245 22.883L22.0374 12.9529C24.6542 10.1304 24.6542 5.76814 22.0373 2.94564ZM20.7962 11.7718H20.7953L12.0018 21.0465L3.20738 11.7718C1.20811 9.6149 1.20811 6.28193 3.20738 4.12505C5.02296 2.15724 8.09006 2.03386 10.0579 3.84943C10.1534 3.93759 10.2453 4.02951 10.3335 4.12505L11.3791 5.22812C11.7236 5.57048 12.2799 5.57048 12.6245 5.22812L13.6701 4.12591C15.4857 2.1581 18.5528 2.03471 20.5206 3.85029C20.6161 3.93844 20.708 4.03036 20.7962 4.12591C22.8129 6.2862 22.8276 9.62526 20.7962 11.7718Z" fill="#2C2C2C"/>
</svg>
