<svg width="24" height="24" viewBox="0 0 24 24" fill="none" xmlns="http://www.w3.org/2000/svg">
<g clip-path="url(#clip0)">
<path d="M22.0397 2.94535C20.7982 1.61342 19.0591 0.849437 17.2346 0.849437C15.4101 0.849437 13.6711 1.60839 12.4246 2.94535L12.0024 3.39268L11.5802 2.94535C9.11232 0.291531 4.9607 0.135719 2.30185 2.60357C2.18625 2.71415 2.07065 2.82472 1.96007 2.94535C-0.658566 5.77006 -0.658566 10.1328 1.96007 12.9525L11.3791 22.8842C11.7058 23.226 12.2487 23.2411 12.5904 22.9194C12.6005 22.9093 12.6105 22.8993 12.6256 22.8842L22.0397 12.9525C24.6583 10.1328 24.6583 5.77006 22.0397 2.94535Z" fill="#319D50"/>
<path d="M20.799 11.7713L12.0032 21.0446L3.20735 11.7713C1.20693 9.61504 1.20693 6.28268 3.20735 4.12645C5.0218 2.15619 8.09279 2.03556 10.058 3.85001C10.1535 3.94049 10.244 4.03096 10.3345 4.12645L11.3799 5.22719C11.7267 5.56897 12.2796 5.56897 12.6264 5.22719L13.6718 4.12645C15.4863 2.15619 18.5573 2.03556 20.5225 3.85001C20.618 3.94049 20.7085 4.03096 20.799 4.12645C22.8145 6.28771 22.8295 9.62509 20.799 11.7713Z" fill="#319D50"/>
</g>
<defs>
<clipPath id="clip0">
<rect width="24" height="24" fill="white"/>
</clipPath>
</defs>
</svg>
