<svg width="50" height="50" viewBox="0 0 50 50" fill="none" xmlns="http://www.w3.org/2000/svg">
<path d="M36.2933 0H13.7067C6.14883 0 0 6.14883 0 13.7068V36.2933C0 43.8513 6.14883 50 13.7067 50H36.2933C43.8513 50 50 43.8513 50 36.2933V13.7068C50 6.14883 43.8513 0 36.2933 0ZM47.0473 36.2933C47.0473 42.223 42.2231 47.0473 36.2933 47.0473H13.7067C7.77695 47.0473 2.95273 42.2231 2.95273 36.2933V13.7068C2.95273 7.77695 7.77695 2.95273 13.7067 2.95273H36.2933C42.2231 2.95273 47.0473 7.77695 47.0473 13.7068V36.2933Z" fill="white"/>
<path d="M24.9991 11.2859C17.4372 11.2859 11.2852 17.4379 11.2852 24.9999C11.2852 32.5618 17.4371 38.7138 24.9991 38.7138C32.561 38.7138 38.7132 32.5617 38.7132 24.9998C38.7132 17.4378 32.561 11.2859 24.9991 11.2859ZM24.9991 35.7612C19.0653 35.7612 14.2378 30.9335 14.2378 24.9998C14.2378 19.066 19.0653 14.2384 24.9991 14.2384C30.933 14.2384 35.7605 19.0661 35.7605 24.9999C35.7605 30.9336 30.933 35.7612 24.9991 35.7612Z" fill="white"/>
<path d="M39.5338 6.29932C37.2363 6.29932 35.3672 8.16855 35.3672 10.466C35.3672 12.7635 37.2363 14.6326 39.5338 14.6326C41.8313 14.6326 43.7004 12.7634 43.7004 10.4659C43.7004 8.16846 41.8313 6.29932 39.5338 6.29932ZM39.5338 11.6798C38.8646 11.6798 38.3199 11.1353 38.3199 10.4659C38.3199 9.79658 38.8646 9.25205 39.5338 9.25205C40.2031 9.25205 40.7477 9.79668 40.7477 10.4659C40.7477 11.1352 40.2031 11.6798 39.5338 11.6798Z" fill="white"/>
</svg>
