<svg width="24" height="24" viewBox="0 0 24 24" fill="none" xmlns="http://www.w3.org/2000/svg">
<path d="M17.4208 0H6.57923C2.95144 0 0 2.95144 0 6.57928V17.4208C0 21.0486 2.95144 24 6.57923 24H17.4208C21.0486 24 24 21.0486 24 17.4208V6.57928C24 2.95144 21.0486 0 17.4208 0ZM22.5827 17.4208C22.5827 20.2671 20.2671 22.5827 17.4208 22.5827H6.57923C3.73294 22.5827 1.41731 20.2671 1.41731 17.4208V6.57928C1.41731 3.73294 3.73294 1.41731 6.57923 1.41731H17.4208C20.2671 1.41731 22.5827 3.73294 22.5827 6.57928V17.4208Z" fill="white"/>
<path d="M11.9997 5.41724C8.36998 5.41724 5.41699 8.37022 5.41699 11.9999C5.41699 15.6297 8.36993 18.5826 11.9997 18.5826C15.6294 18.5826 18.5824 15.6296 18.5824 11.9999C18.5824 8.37017 15.6294 5.41724 11.9997 5.41724ZM11.9997 17.1654C9.15148 17.1654 6.83426 14.8481 6.83426 11.9999C6.83426 9.15167 9.15148 6.83446 11.9997 6.83446C14.848 6.83446 17.1652 9.15172 17.1652 11.9999C17.1652 14.8482 14.848 17.1654 11.9997 17.1654Z" fill="white"/>
<path d="M18.9765 3.02368C17.8737 3.02368 16.9766 3.92092 16.9766 5.0237C16.9766 6.12648 17.8737 7.02367 18.9765 7.02367C20.0793 7.02367 20.9765 6.12643 20.9765 5.02365C20.9765 3.92087 20.0793 3.02368 18.9765 3.02368ZM18.9765 5.60631C18.6553 5.60631 18.3939 5.34493 18.3939 5.02365C18.3939 4.70237 18.6553 4.44099 18.9765 4.44099C19.2978 4.44099 19.5592 4.70242 19.5592 5.02365C19.5592 5.34488 19.2978 5.60631 18.9765 5.60631Z" fill="white"/>
</svg>
