<svg width="24" height="24" viewBox="0 0 24 24" fill="none" xmlns="http://www.w3.org/2000/svg">
<g clip-path="url(#clip0)">
<path d="M23.7596 22.5485L15.2208 14.0098C18.22 10.3417 17.6777 4.93697 14.0097 1.93782C10.3417 -1.06133 4.93688 -0.51905 1.93773 3.14894C-1.06142 6.81694 -0.519142 12.2218 3.14885 15.2209C6.3083 17.8042 10.8503 17.8042 14.0097 15.2209L22.5485 23.7597C22.8887 24.0883 23.431 24.0789 23.7596 23.7386C24.0801 23.4067 24.0801 22.8805 23.7596 22.5485ZM8.59298 15.4453C4.81036 15.441 1.74496 12.3757 1.74074 8.59307C1.74074 4.80869 4.8086 1.74084 8.59298 1.74084C12.3774 1.74084 15.4452 4.80869 15.4452 8.59307C15.4452 12.3774 12.3774 15.4453 8.59298 15.4453Z" fill="#898A8E"/>
</g>
<defs>
<clipPath id="clip0">
<rect width="24" height="24" fill="white"/>
</clipPath>
</defs>
</svg>
