<svg width="100" height="100" viewBox="0 0 100 100" fill="none" xmlns="http://www.w3.org/2000/svg">
<g clip-path="url(#clip0)">
<g clip-path="url(#clip1)">
<path d="M84.375 28.125H15.625C13.8992 28.125 12.5 26.7258 12.5 25C12.5 23.2742 13.8992 21.875 15.625 21.875H84.375C86.1008 21.875 87.5 23.2742 87.5 25C87.5 26.7258 86.1008 28.125 84.375 28.125ZM87.5 50C87.5 48.2742 86.1008 46.875 84.375 46.875H15.625C13.8992 46.875 12.5 48.2742 12.5 50C12.5 51.7258 13.8992 53.125 15.625 53.125H84.375C86.1008 53.125 87.5 51.7258 87.5 50ZM87.5 75C87.5 73.2742 86.1008 71.875 84.375 71.875H15.625C13.8992 71.875 12.5 73.2742 12.5 75C12.5 76.7258 13.8992 78.125 15.625 78.125H84.375C86.1008 78.125 87.5 76.7258 87.5 75Z" fill="white"/>
</g>
</g>
<defs>
<clipPath id="clip0">
<rect width="100" height="100" fill="white"/>
</clipPath>
<clipPath id="clip1">
<rect width="1750" height="88" fill="white" transform="translate(8 12)"/>
</clipPath>
</defs>
</svg>
