<svg width="50" height="50" viewBox="0 0 50 50" fill="none" xmlns="http://www.w3.org/2000/svg">
<path d="M25 0C11.1825 0 0 11.1813 0 25C0 29.9904 1.45366 34.7739 4.21269 38.8908L0.761375 47.1984C0.229235 48.4791 1.51672 49.7721 2.80159 49.2386L11.1092 45.7873C15.226 48.5463 20.0095 49.9999 25 49.9999C38.8174 49.9999 50 38.8186 50 24.9999C50 11.1826 38.8187 0 25 0ZM25 46.8783C20.3743 46.8783 15.9525 45.4517 12.2124 42.7527C11.7723 42.4351 11.1996 42.3695 10.7001 42.577L5.09405 44.9061L7.42302 39.3C7.63092 38.7996 7.56443 38.227 7.24737 37.7877C4.54827 34.0475 3.12167 29.6257 3.12167 25C3.12167 12.9362 12.9362 3.12167 25 3.12167C37.0638 3.12167 46.8783 12.9362 46.8783 25C46.8783 37.0638 37.0637 46.8783 25 46.8783Z" fill="#319D50"/>
<path d="M31.673 15.0887L22.0711 24.6905L19.0929 21.7123C17.2631 19.8824 14.3009 19.882 12.4708 21.7123C10.6451 23.538 10.6451 26.5087 12.4708 28.3343L18.76 34.6236C20.5897 36.4535 23.5521 36.4539 25.3821 34.6236L38.2951 21.7106C40.1208 19.8849 40.1208 16.9142 38.2951 15.0886C36.4653 13.2588 33.5032 13.2583 31.673 15.0887ZM36.0878 19.5033L23.1748 32.4162C22.5647 33.0263 21.5775 33.0262 20.9675 32.4162L14.6782 26.127C14.0684 25.5171 14.0682 24.5297 14.6782 23.9197C15.2879 23.3098 16.2755 23.3094 16.8856 23.9197L20.9675 28.0016C21.5769 28.611 22.5652 28.611 23.1748 28.0016L33.8805 17.296C34.4901 16.6861 35.4777 16.6857 36.0878 17.296C36.6977 17.906 36.6978 18.8933 36.0878 19.5033Z" fill="#319D50"/>
</svg>
