<svg width="50" height="50" viewBox="0 0 50 50" fill="none" xmlns="http://www.w3.org/2000/svg">
<g clip-path="url(#clip0)">
<path d="M46.5687 0.0970459H3.43132C1.53923 0.0970459 0 1.63628 0 3.52837V34.9008C0 36.7929 1.53923 38.3321 3.43132 38.3321H8.82339V48.6265C8.82339 49.9387 10.4153 50.5849 11.3338 49.6664L22.6681 38.3321H46.5687C48.4608 38.3321 50 36.7929 50 34.9008V3.52837C50 1.63628 48.4608 0.0970459 46.5687 0.0970459ZM47.0589 34.9008C47.0589 35.1713 46.8388 35.391 46.5687 35.391H22.0589C21.6686 35.391 21.2948 35.5459 21.019 35.8217L11.7645 45.0761V36.8616C11.7645 36.0494 11.1061 35.391 10.294 35.391H3.43132C3.16086 35.391 2.94113 35.1713 2.94113 34.9008V3.52837C2.94113 3.2579 3.16086 3.03818 3.43132 3.03818H46.5687C46.8388 3.03818 47.0589 3.2579 47.0589 3.52837V34.9008Z" fill="#319D50"/>
<path d="M37.5732 14.9788L29.7977 13.8489L26.3202 6.80273C25.7816 5.71211 24.2213 5.71173 23.6827 6.80273L20.2052 13.8489L12.4294 14.9788C11.2258 15.1539 10.7429 16.6374 11.6145 17.4873L17.2408 22.9717L15.9129 30.7159C15.7073 31.9149 16.9688 32.8331 18.0465 32.2662L25.0015 28.6098C32.5092 32.5569 32.1342 32.4352 32.6404 32.4352C33.5471 32.4352 34.2448 31.6181 34.09 30.7159L32.7617 22.9717L38.3884 17.4873C39.2593 16.6382 38.7778 15.1539 37.5732 14.9788ZM30.1551 21.4054C29.8087 21.743 29.6504 22.2297 29.7324 22.707L30.6876 28.2764L25.6858 25.647C25.2574 25.4215 24.7459 25.4215 24.3171 25.647L19.3153 28.2764L20.2705 22.707C20.3525 22.2297 20.1942 21.743 19.8478 21.4054L15.8012 17.461L21.3935 16.6485C21.8723 16.5787 22.2861 16.2781 22.5005 15.8439L25.0015 10.7765L27.5024 15.8439C27.7168 16.2781 28.1306 16.5787 28.6094 16.6485L34.2017 17.461L30.1551 21.4054Z" fill="#319D50"/>
</g>
<defs>
<clipPath id="clip0">
<rect width="50" height="50" fill="white"/>
</clipPath>
</defs>
</svg>
