<svg width="80" height="58" viewBox="0 0 80 58" fill="none" xmlns="http://www.w3.org/2000/svg">
<path d="M17.7404 0.764565C7.95775 0.764565 0 8.72231 0 18.5051C0 27.9423 7.406 35.6827 16.7114 36.2174C16.8725 37.9569 16.7516 42.6921 12.2143 49.2789C11.8713 49.7758 11.9335 50.4459 12.3595 50.8719C14.2163 52.7287 15.3638 53.8981 16.1669 54.7159C17.218 55.7853 17.6978 56.2736 18.3996 56.9108C18.6376 57.1268 18.9379 57.2354 19.2395 57.2354C19.5324 57.2354 19.8241 57.1329 20.0598 56.9291C27.9663 50.0492 36.7493 35.8341 35.4785 18.4147C34.7339 8.18769 27.2741 0.764565 17.7404 0.764565ZM19.2516 54.2777C18.9111 53.9421 18.5229 53.5466 17.9504 52.9642C17.2546 52.2551 16.3 51.2833 14.8523 49.8307C20.3589 41.3456 19.3188 35.3019 18.8635 34.4352C18.6474 34.0238 18.2043 33.7467 17.7404 33.7467C9.33712 33.7467 2.5 26.9096 2.5 18.5051C2.5 10.1017 9.33713 3.26456 17.7404 3.26456C25.9265 3.26456 32.3376 9.71232 32.9858 18.5953C34.414 38.1877 22.7698 50.9086 19.2516 54.2777Z" fill="#2C2C2C"/>
<path d="M79.8755 18.4147V18.4134C79.1284 8.18769 71.6675 0.764565 62.1363 0.764565C52.3535 0.764565 44.3945 8.72231 44.3945 18.5051C44.3945 27.9423 51.8018 35.6827 61.1084 36.2174C61.2695 37.9557 61.1474 42.6883 56.6089 49.2789C56.2659 49.7758 56.3281 50.4459 56.7541 50.8719C58.6035 52.7213 59.7485 53.8883 60.5518 54.7049C61.6076 55.7816 62.0899 56.2723 62.7954 56.9119C63.0334 57.1268 63.3349 57.2354 63.6353 57.2354C63.9283 57.2354 64.22 57.1329 64.4555 56.9278C72.362 50.0479 81.145 35.8329 79.8755 18.4147ZM63.6474 54.2777C63.3044 53.9396 62.9126 53.5417 62.3351 52.9533C61.6394 52.2452 60.6885 51.2761 59.2468 49.8307C64.7534 41.3443 63.7146 35.3019 63.2605 34.4352C63.0444 34.0251 62.6001 33.7467 62.1363 33.7467C53.7316 33.7467 46.8945 26.9096 46.8945 18.5051C46.8945 10.1017 53.7316 3.26456 62.1363 3.26456C70.321 3.26456 76.7334 9.71232 77.3828 18.5966V18.5953C78.8098 38.1852 67.1655 50.9086 63.6474 54.2777Z" fill="#2C2C2C"/>
</svg>
