<svg width="24" height="24" viewBox="0 0 24 24" fill="none" xmlns="http://www.w3.org/2000/svg">
<path d="M21.9209 22.9975L20.4605 6.73362C20.4206 6.28947 20.0483 5.94926 19.6025 5.94926H16.5908V4.59096C16.5908 2.05951 14.5314 0 12.0001 0C9.46884 0 7.40968 2.05951 7.40968 4.59096V5.94926H4.39594C3.95006 5.94926 3.57781 6.28947 3.53796 6.73362L2.0718 23.0615C2.05021 23.3025 2.13084 23.5413 2.29405 23.7197C2.45726 23.8982 2.68801 23.9999 2.92979 23.9999H21.0687C21.0694 23.9999 21.0703 23.9999 21.071 23.9999C21.5469 23.9999 21.9325 23.6142 21.9325 23.1385C21.9323 23.0906 21.9284 23.0434 21.9209 22.9975ZM9.13254 4.59096C9.13254 3.00949 10.4189 1.72286 12.0002 1.72286C13.5815 1.72286 14.8681 3.00949 14.8681 4.59096V5.94926H9.13254V4.59096ZM3.87208 22.2771L5.18352 7.67212H7.40968V9.21259C7.40968 9.68832 7.79526 10.074 8.27111 10.074C8.74696 10.074 9.13254 9.68832 9.13254 9.21259V7.67212H14.8681V9.21259C14.8681 9.68832 15.2536 10.074 15.7295 10.074C16.2053 10.074 16.5909 9.68832 16.5909 9.21259V7.67212H18.815L20.1264 22.2771H3.87208Z" fill="white"/>
</svg>
