<svg width="40" height="40" viewBox="0 0 40 40" fill="none" xmlns="http://www.w3.org/2000/svg">
<path d="M36.5348 38.3292L34.1008 11.2227C34.0343 10.4824 33.4139 9.91544 32.6708 9.91544H27.6513V7.6516C27.6513 3.43251 24.219 0 20.0001 0C15.7814 0 12.3495 3.43251 12.3495 7.6516V9.91544H7.32657C6.58344 9.91544 5.96302 10.4824 5.89659 11.2227L3.45301 38.4358C3.41702 38.8375 3.5514 39.2354 3.82342 39.5329C4.09544 39.8304 4.48002 39.9998 4.88298 39.9998H35.1146C35.1157 39.9998 35.1172 39.9998 35.1184 39.9998C35.9115 39.9998 36.5541 39.357 36.5541 38.5641C36.5539 38.4843 36.5474 38.4056 36.5348 38.3292ZM15.2209 7.6516C15.2209 5.01582 17.3649 2.87143 20.0003 2.87143C22.6359 2.87143 24.7801 5.01582 24.7801 7.6516V9.91544H15.2209V7.6516ZM6.45346 37.1286L8.63919 12.7869H12.3495V15.3543C12.3495 16.1472 12.9921 16.79 13.7852 16.79C14.5783 16.79 15.2209 16.1472 15.2209 15.3543V12.7869H24.7801V15.3543C24.7801 16.1472 25.4227 16.79 26.2158 16.79C27.0089 16.79 27.6515 16.1472 27.6515 15.3543V12.7869H31.3583L33.5441 37.1286H6.45346Z" fill="white"/>
</svg>
