<svg width="20" height="20" viewBox="0 0 20 20" fill="none" xmlns="http://www.w3.org/2000/svg">
<path d="M10 0C4.48613 0 0 4.4859 0 10C0 15.5141 4.48613 20 10 20C15.5141 20 20 15.5141 20 10C20 4.4859 15.5139 0 10 0ZM10 18.5402C5.29102 18.5402 1.45984 14.709 1.45984 10C1.45984 5.29102 5.29102 1.45984 10 1.45984C14.709 1.45984 18.5402 5.29098 18.5402 9.99977C18.5402 14.709 14.709 18.5402 10 18.5402Z" fill="white"/>
<path d="M13.4061 10.0001H10.243V5.62055C10.243 5.21738 9.91629 4.89062 9.51312 4.89062C9.10996 4.89062 8.7832 5.21738 8.7832 5.62055V10.73C8.7832 11.1332 9.10996 11.46 9.51312 11.46H13.4061C13.8092 11.46 14.136 11.1332 14.136 10.73C14.136 10.3269 13.8092 10.0001 13.4061 10.0001Z" fill="white"/>
</svg>
