<svg width="40" height="40" viewBox="0 0 40 40" fill="none" xmlns="http://www.w3.org/2000/svg">
<path d="M20.0008 22.5304C7.98227 22.5304 1.36328 28.216 1.36328 38.5401C1.36328 39.3465 2.0168 40 2.82313 40H37.1784C37.9847 40 38.6382 39.3465 38.6382 38.5401C38.6383 28.2165 32.0193 22.5304 20.0008 22.5304ZM4.33609 37.0803C4.91031 29.3611 10.173 25.4501 20.0008 25.4501C29.8285 25.4501 35.0913 29.3611 35.666 37.0803H4.33609Z" fill="white"/>
<path d="M20.0001 0C14.4794 0 10.3164 4.24672 10.3164 9.87789C10.3164 15.674 14.6605 20.3888 20.0001 20.3888C25.3397 20.3888 29.6838 15.674 29.6838 9.87836C29.6838 4.24672 25.5208 0 20.0001 0ZM20.0001 17.4696C16.2702 17.4696 13.2361 14.0642 13.2361 9.87836C13.2361 5.84625 16.0809 2.91969 20.0001 2.91969C23.8566 2.91969 26.7641 5.91094 26.7641 9.87836C26.7641 14.0642 23.73 17.4696 20.0001 17.4696Z" fill="white"/>
</svg>
