<svg width="50" height="50" viewBox="0 0 50 50" fill="none" xmlns="http://www.w3.org/2000/svg">
<g clip-path="url(#clip0)">
<path d="M49.75 39.7598L48.029 35.7153C46.5282 32.1295 44.5466 29.0282 42.1257 26.4731C45.3068 23.9273 48.4989 19.492 48.4989 11.948V9.01976C48.4989 7.30014 47.0999 5.90112 45.3803 5.90112H39.5239C37.8043 5.90112 36.4053 7.30014 36.4053 9.01976V11.948C36.4053 14.1247 36.0015 15.5393 35.0959 16.5344C34.4627 17.2304 33.524 17.7816 32.2944 18.1815V7.37748C32.2944 6.56215 31.6334 5.90112 30.8181 5.90112H19.8523C17.6569 5.90112 15.8709 7.68715 15.8709 9.88255C15.8709 11.7343 17.129 13.3271 18.9305 13.7559L19.4102 13.87C19.8757 13.9808 20.2007 14.3923 20.2007 14.8707V30.0394C18.8881 29.1402 17.6623 27.9486 16.5854 26.5152C13.6888 22.6597 12.0936 17.4863 12.0936 11.9478V9.01976C12.0936 7.30014 10.6946 5.90112 8.97495 5.90112H3.11854C1.39892 5.90112 0 7.30014 0 9.01976V11.948C0 20.2533 2.55028 28.1231 7.1814 34.1074C12.1678 40.5509 18.939 44.0995 26.2476 44.0995H29.1758C30.8954 44.0995 32.2944 42.7005 32.2944 40.9809V33.7973C34.1867 35.4266 35.723 37.6359 36.8736 40.3864L37.6259 42.1845C38.1125 43.3478 39.2418 44.0994 40.5028 44.0994H46.8801C47.93 44.0994 48.9025 43.5767 49.4817 42.7009C50.0608 41.8252 50.1611 40.7257 49.75 39.7598ZM47.0184 41.0723C46.9693 41.1467 46.9045 41.1467 46.8801 41.1467H40.5028C40.4358 41.1467 40.3757 41.1068 40.3499 41.045L39.5976 39.2468C37.9603 35.3329 35.6073 32.3332 32.6044 30.3311C32.2639 30.104 31.914 29.8913 31.5347 29.6807C31.3115 29.5567 31.0647 29.4949 30.818 29.4949C30.5589 29.4949 30.3 29.5631 30.0692 29.6988C29.6184 29.9642 29.3416 30.4482 29.3416 30.9713V40.9808C29.3416 41.0722 29.2672 41.1466 29.1758 41.1466H26.2476C19.873 41.1466 13.9313 38.0049 9.51664 32.3003C5.28395 26.8305 2.95291 19.6025 2.95291 11.9479V9.01976C2.95291 8.92835 3.02733 8.85394 3.11873 8.85394H8.97505C9.06645 8.85394 9.14086 8.92835 9.14086 9.01976V11.948C9.14086 18.122 10.9463 23.9253 14.2244 28.2889C16.1584 30.8629 18.5354 32.8003 21.0986 33.8913C21.5546 34.0854 22.0775 34.0377 22.4911 33.7644C22.9046 33.491 23.1533 33.0284 23.1533 32.5328V14.8708C23.1533 13.019 21.8952 11.4261 20.0937 10.9974L19.614 10.8833C19.1486 10.7725 18.8235 10.3609 18.8235 9.88255C18.8235 9.31536 19.2849 8.85384 19.8522 8.85384H29.3415V20.0642C29.3415 20.5021 29.536 20.9174 29.8722 21.1979C30.2084 21.4784 30.6519 21.5956 31.0825 21.5168C33.8439 21.0138 35.9292 20.006 37.2799 18.5215C38.717 16.942 39.358 14.9147 39.358 11.9479V9.01966C39.358 8.92825 39.4324 8.85384 39.5238 8.85384H45.3802C45.4716 8.85384 45.546 8.92825 45.546 9.01966V11.9479C45.546 19.3422 42.0123 23.1545 39.0476 25.0508C38.6619 25.2975 38.4125 25.7092 38.3724 26.1654C38.3324 26.6216 38.5063 27.0704 38.8431 27.3806C41.5393 29.863 43.7138 33.0518 45.3064 36.8585C45.3075 36.8612 45.3087 36.8639 45.3099 36.8668L47.0328 40.916C47.0422 40.9384 47.0676 40.998 47.0184 41.0723Z" fill="white"/>
</g>
<defs>
<clipPath id="clip0">
<rect width="50" height="50" fill="white"/>
</clipPath>
</defs>
</svg>
