<svg width="24" height="24" viewBox="0 0 24 24" fill="none" xmlns="http://www.w3.org/2000/svg">
<g clip-path="url(#clip0)">
<path d="M23.88 19.0847L23.0539 17.1433C22.3336 15.4221 21.3824 13.9335 20.2204 12.7071C21.7472 11.4851 23.2795 9.35612 23.2795 5.735V4.32946C23.2795 3.50405 22.608 2.83252 21.7825 2.83252H18.9715C18.146 2.83252 17.4745 3.50405 17.4745 4.32946V5.735C17.4745 6.77984 17.2807 7.45882 16.846 7.93647C16.5421 8.27055 16.0915 8.53516 15.5013 8.72711V3.54117C15.5013 3.14981 15.184 2.83252 14.7927 2.83252H9.52912C8.47533 2.83252 7.61803 3.68981 7.61803 4.7436C7.61803 5.63244 8.22192 6.39697 9.08662 6.60279L9.31691 6.65759C9.54032 6.71075 9.69632 6.90828 9.69632 7.13792V14.4189C9.06627 13.9873 8.4779 13.4153 7.96097 12.7273C6.57062 10.8766 5.80492 8.39341 5.80492 5.73491V4.32946C5.80492 3.50405 5.13339 2.83252 4.30797 2.83252H1.4969C0.67148 2.83252 0 3.50405 0 4.32946V5.735C0 9.72156 1.22413 13.4991 3.44707 16.3715C5.84054 19.4644 9.0907 21.1678 12.5988 21.1678H14.0044C14.8298 21.1678 15.5013 20.4962 15.5013 19.6708V16.2227C16.4096 17.0048 17.1471 18.0652 17.6993 19.3854L18.0604 20.2485C18.294 20.8069 18.836 21.1677 19.4413 21.1677H22.5024C23.0064 21.1677 23.4732 20.9168 23.7512 20.4964C24.0292 20.0761 24.0773 19.5483 23.88 19.0847ZM22.5688 19.7147C22.5452 19.7504 22.5142 19.7504 22.5024 19.7504H19.4413C19.4092 19.7504 19.3804 19.7312 19.3679 19.7016L19.0069 18.8385C18.221 16.9598 17.0915 15.5199 15.6501 14.5589C15.4867 14.4499 15.3187 14.3478 15.1366 14.2467C15.0295 14.1872 14.911 14.1575 14.7926 14.1575C14.6683 14.1575 14.544 14.1903 14.4332 14.2554C14.2168 14.3828 14.084 14.6151 14.084 14.8662V19.6708C14.084 19.7146 14.0483 19.7504 14.0044 19.7504H12.5988C9.53905 19.7504 6.68701 18.2424 4.56799 15.5041C2.5363 12.8786 1.4174 9.40919 1.4174 5.73496V4.32946C1.4174 4.28559 1.45312 4.24987 1.49699 4.24987H4.30802C4.3519 4.24987 4.38761 4.28559 4.38761 4.32946V5.735C4.38761 8.69856 5.25423 11.4841 6.82773 13.5786C7.75603 14.8142 8.89701 15.7441 10.1273 16.2678C10.3462 16.361 10.5972 16.3381 10.7957 16.2069C10.9942 16.0757 11.1136 15.8536 11.1136 15.6157V7.13796C11.1136 6.24908 10.5097 5.4845 9.64499 5.27872L9.41474 5.22397C9.19134 5.17077 9.03529 4.97319 9.03529 4.7436C9.03529 4.47135 9.25677 4.24982 9.52907 4.24982H14.0839V9.63081C14.0839 9.84099 14.1773 10.0404 14.3387 10.175C14.5 10.3096 14.7129 10.3659 14.9196 10.328C16.2451 10.0866 17.246 9.60287 17.8943 8.89028C18.5841 8.13213 18.8918 7.15906 18.8918 5.73496V4.32942C18.8918 4.28554 18.9275 4.24982 18.9714 4.24982H21.7825C21.8264 4.24982 21.8621 4.28554 21.8621 4.32942V5.73496C21.8621 9.28422 20.1659 11.1142 18.7429 12.0244C18.5577 12.1428 18.438 12.3404 18.4188 12.5594C18.3995 12.7784 18.483 12.9938 18.6447 13.1427C19.9389 14.3342 20.9826 15.8649 21.7471 17.692C21.7476 17.6934 21.7482 17.6947 21.7487 17.696L22.5758 19.6396C22.5803 19.6504 22.5924 19.679 22.5688 19.7147Z" fill="#2C2C2C"/>
</g>
<defs>
<clipPath id="clip0">
<rect width="24" height="24" fill="white"/>
</clipPath>
</defs>
</svg>
