<svg width="20" height="20" viewBox="0 0 20 20" fill="none" xmlns="http://www.w3.org/2000/svg">
<g clip-path="url(#clip0)">
<path d="M15.0051 12.0405L13.9452 10.9806C13.656 10.6914 13.2563 10.5465 12.8494 10.5831C12.4421 10.6196 12.0749 10.8332 11.8418 11.1691L11.4726 11.7012C10.9704 11.6118 9.99908 11.3586 9.3201 10.6796C8.64084 10.0003 8.38771 9.02848 8.29842 8.52712L8.8306 8.15786C9.16654 7.92473 9.38017 7.55743 9.41662 7.15016C9.45314 6.7429 9.30822 6.34352 9.01912 6.05446L7.9592 4.99454C7.53326 4.56864 6.89127 4.467 6.36158 4.74145C5.43283 5.22262 4.82275 6.12458 4.64353 7.28114C4.35162 9.16547 5.22275 11.3885 6.91693 13.0827C8.39451 14.5603 10.2742 15.4118 11.9808 15.4118C12.231 15.4118 12.4776 15.3934 12.7185 15.3561C13.8751 15.177 14.7771 14.5668 15.2582 13.6381C15.2582 13.6381 15.2582 13.6381 15.2582 13.6381C15.5326 13.1084 15.431 12.4664 15.0051 12.0405ZM14.1797 13.0794C13.7974 13.8174 13.0729 14.0721 12.5326 14.1558C11.0468 14.3859 9.17963 13.6277 7.77576 12.2238C6.37197 10.82 5.61361 8.9529 5.84377 7.46708C5.92744 6.92669 6.1822 6.20231 6.92025 5.81989C6.94025 5.80958 6.96236 5.80454 6.98478 5.80454C7.02603 5.80454 7.06838 5.82153 7.10025 5.85337L8.16021 6.91333C8.20424 6.95743 8.20986 7.00751 8.20678 7.04176C8.20369 7.07606 8.18931 7.12434 8.13806 7.15989L7.30084 7.74083C7.12576 7.86231 7.02713 8.06676 7.04107 8.27942C7.04635 8.35973 7.18447 10.2616 8.46119 11.5383C9.73791 12.8151 11.6398 12.9533 11.7201 12.9585C11.9326 12.9722 12.1372 12.8738 12.2587 12.6987L12.8397 11.8615C12.8752 11.8103 12.9235 11.7959 12.9578 11.7928C12.9921 11.7896 13.0421 11.7953 13.0863 11.8394L14.1462 12.8993C14.1954 12.9485 14.2092 13.0225 14.1797 13.0794Z" fill="white"/>
<path d="M17.0709 2.92906C15.1821 1.0402 12.6708 0 9.99959 0C7.32834 0 4.81709 1.0402 2.92826 2.92902C1.32291 4.53438 0.303771 6.65902 0.0584589 8.9116C-0.173455 11.0411 0.289357 13.2086 1.36311 15.046L0.320998 18.9352C0.264826 19.1447 0.324748 19.3684 0.478225 19.5218C0.631623 19.6752 0.855334 19.7351 1.06479 19.679L4.95393 18.6369C6.48143 19.5296 8.23725 20 10.0096 20C10.369 20 10.7292 19.9807 11.0883 19.9415C13.3409 19.6962 15.4656 18.6771 17.0709 17.0717C18.9598 15.1829 20 12.6716 20 10.0004C20 7.32922 18.9598 4.81789 17.0709 2.92906ZM16.2121 16.2128C13.3085 19.1164 8.84877 19.6323 5.36686 17.4677C5.26967 17.4073 5.15846 17.3761 5.04616 17.3761C4.99358 17.3761 4.94076 17.383 4.88901 17.3968L1.76647 18.2335L2.60319 15.111C2.64662 14.9488 2.62096 14.7758 2.53233 14.6332C0.3676 11.1511 0.883615 6.69141 3.78709 3.78789C7.21272 0.362344 12.7865 0.362344 16.2121 3.78789C19.6376 7.21344 19.6376 12.7873 16.2121 16.2128Z" fill="white"/>
</g>
<defs>
<clipPath id="clip0">
<rect width="20" height="20" fill="white"/>
</clipPath>
</defs>
</svg>
