<svg width="24" height="24" viewBox="0 0 24 24" fill="none" xmlns="http://www.w3.org/2000/svg">
<path d="M20.9819 3.01809C19.0357 1.07184 16.448 0 13.6957 0C10.9433 0 8.35565 1.07184 6.40945 3.01809C4.46325 4.9643 3.39136 7.55194 3.39136 10.3043C3.39136 12.8206 4.2878 15.199 5.9288 17.0757L0.206156 22.7984C-0.0687187 23.0733 -0.0687187 23.5189 0.206156 23.7938C0.343594 23.9312 0.523734 24 0.703828 24C0.883922 24 1.06411 23.9313 1.2015 23.7938L6.92419 18.0712C8.80092 19.7121 11.1793 20.6086 13.6957 20.6086C16.4481 20.6086 19.0356 19.5368 20.9819 17.5905C22.9281 15.6443 23.9999 13.0567 23.9999 10.3043C23.9999 7.55194 22.9281 4.9643 20.9819 3.01809ZM19.9865 16.5951C16.5177 20.0639 10.8737 20.0639 7.40489 16.5951C3.93614 13.1264 3.93614 7.48228 7.40489 4.01353C9.13945 2.27897 11.4172 1.41197 13.6957 1.41197C15.9736 1.41197 18.2523 2.27939 19.9865 4.01353C23.4552 7.48223 23.4552 13.1263 19.9865 16.5951Z" fill="black"/>
<path d="M18 11.1429H14.1429V15H12.8571V11.1429H9V9.85714H12.8571V6H14.1429V9.85714H18V11.1429Z" fill="#2C2C2C"/>
</svg>
