<svg width="24" height="24" fill="none" xmlns="http://www.w3.org/2000/svg"><path d="M12 13.518C4.79 13.518.819 16.93.819 23.124c0 .484.392.876.876.876h20.613a.876.876 0 00.876-.876c0-6.194-3.971-9.606-11.182-9.606zm-9.398 8.73c.345-4.631 3.502-6.978 9.399-6.978 5.897 0 9.054 2.347 9.399 6.978H2.602zM12 0C8.687 0 6.19 2.548 6.19 5.927c0 3.477 2.606 6.306 5.81 6.306 3.203 0 5.81-2.829 5.81-6.306C17.81 2.548 15.312 0 12 0zm0 10.482c-2.238 0-4.059-2.043-4.059-4.555 0-2.42 1.707-4.175 4.059-4.175 2.313 0 4.058 1.795 4.058 4.175 0 2.512-1.82 4.555-4.058 4.555z" fill="#fff"/></svg>